<svg width="4190" height="4686" viewBox="0 0 4190 4686" fill="none" xmlns="http://www.w3.org/2000/svg">
<g filter="url(#filter0_f_100_16)">
<path d="M1483.6 2407.92C1978 2026.33 1413.95 1549.4 1640.07 1563.49C2020.25 1479.67 2509.56 1326.62 2307.25 485.074C2104.94 -356.467 3664.99 735.048 4009.03 1453.34C3067.66 2022.2 4093.37 3435.57 3469.26 3253.54C2845.16 3071.51 422.604 4960.08 807.31 4401.86C1024.12 4087.25 925.825 3845.61 727.706 3607.87C574.289 3423.77 361.014 3242 187.851 3030.5C119.3 2946.77 579.14 2346.66 601.893 2333.42C786.459 1839.22 1297.44 2551.6 1483.6 2407.92Z" fill="#BB8730" fill-opacity="0.5"/>
</g>
<defs>
<filter id="filter0_f_100_16" x="0.890625" y="0.127197" width="4188.14" height="4685.31" filterUnits="userSpaceOnUse" color-interpolation-filters="sRGB">
<feFlood flood-opacity="0" result="BackgroundImageFix"/>
<feBlend mode="normal" in="SourceGraphic" in2="BackgroundImageFix" result="shape"/>
<feGaussianBlur stdDeviation="90" result="effect1_foregroundBlur_100_16"/>
</filter>
</defs>
</svg>
